<?xml version="1.0" standalone="no"?><!DOCTYPE svg PUBLIC "-//W3C//DTD SVG 1.1//EN" "http://www.w3.org/Graphics/SVG/1.1/DTD/svg11.dtd"><svg t="1702011766498" class="icon" viewBox="0 0 1024 1024" version="1.1" xmlns="http://www.w3.org/2000/svg" p-id="1359" width="48" height="48" xmlns:xlink="http://www.w3.org/1999/xlink"><path d="M298.666667 128v725.333333c0 14.933333-2.56 29.312-7.253334 42.666667H853.333333a42.666667 42.666667 0 0 0 42.666667-42.666667V128H298.666667z m-85.333334 341.333333V42.666667h768v810.666666a128 128 0 0 1-128 128H170.666667a128 128 0 0 1-128-128v-384h170.666666z m-85.333333 85.333334v298.666666a42.666667 42.666667 0 0 0 85.333333 0v-298.666666H128z" fill="#212937" p-id="1360"></path><path d="M426.666667 597.333333v-85.333333h341.333333v85.333333h-341.333333z m0-170.666666V341.333333h341.333333v85.333334h-341.333333z" fill="#212937" p-id="1361"></path></svg>